# xmcd
#
# Track frame offsets:
#       150
#       12007
#       24839
#       50619
#       62917
#       81185
#       100564
#       114456
#       130866
#       145680
#       161926
#
# Disc length: 2387 seconds
#
# Revision: 2
# Processed by: cddbd v1.5.2PL0 Copyright (c) Steve Scherf et al.
# Submitted via: FreeDbEdit v0.1
#
DISCID=8609510b
DTITLE=Savoy Brown - Rock and Roll Warriors
DYEAR=2006
DGENRE=Blues
TTITLE0=Cold Hearted Woman
TTITLE1=Georgie
TTITLE2=Bad Breaks (Make Me Feel Good)
TTITLE3=Don't Tell Me I Told You
TTITLE4=This Could Be the Night
TTITLE5=Lay Back in the Arms of Someone
TTITLE6=Shot Down by Love
TTITLE7=Bad Girls (Make Me Feel Good)
TTITLE8=Got Love If You Want It
TTITLE9=Nobody's Perfect
TTITLE10=Run to Me
EXTD=2 CD Set
EXTT0=
EXTT1=
EXTT2=
EXTT3=
EXTT4=
EXTT5=
EXTT6=
EXTT7=
EXTT8=
EXTT9=
EXTT10=
PLAYORDER=
